<?xml version="1.0" encoding="UTF-8"?>
<svg xmlns="http://www.w3.org/2000/svg" viewBox="0 0 1112.83 645">
  <defs>
    <style>
      .cls-1 {
        fill: #0063f2;
      }

      .cls-2 {
        isolation: isolate;
      }

      .cls-3, .cls-4, .cls-5 {
        fill: #00d3ef;
      }

      .cls-3, .cls-6 {
        mix-blend-mode: color-burn;
      }

      .cls-4 {
        opacity: .99;
      }
    </style>
  </defs>
  <g class="cls-2">
    <g id="Capa_2" data-name="Capa 2">
      <g id="Capa_1-2" data-name="Capa 1">
        <g>
          <g>
            <rect class="cls-1" x="490.25" y="-59.62" width="132.21" height="540.18" rx="66.11" ry="66.11" transform="translate(311.78 -331.76) rotate(45)"/>
            <rect class="cls-3" x="490.37" y="-59.75" width="132.21" height="540.18" rx="66.11" ry="66.11" transform="translate(1098.7 -34.41) rotate(135)"/>
          </g>
          <g>
            <ellipse class="cls-5" cx="830.51" cy="210.47" rx="78.22" ry="78.68"/>
            <ellipse class="cls-5" cx="282.32" cy="210.47" rx="78.22" ry="78.68"/>
          </g>
          <g class="cls-6">
            <path class="cls-5" d="M177.88,645c-14.95,0-27.71-5.28-38.28-15.85-10.57-10.57-15.85-23.33-15.85-38.28s5.28-27.71,15.85-38.28c10.57-10.57,23.33-15.85,38.28-15.85s27.71,5.29,38.28,15.85c10.57,10.57,15.85,23.33,15.85,38.28s-5.29,27.71-15.85,38.28c-10.57,10.57-23.33,15.85-38.28,15.85Z"/>
            <path class="cls-4" d="M319.25,567.66h-58c-8.54,0-15.47-6.93-15.47-15.47h0c0-8.54,6.93-15.47,15.47-15.47h58c9.59,0,17.79,3.4,24.59,10.21,6.81,6.81,10.21,15,10.21,24.59,0,7.22-1.93,13.66-5.8,19.33,3.87,5.67,5.8,12.12,5.8,19.34,0,9.59-3.4,17.79-10.21,24.59-6.81,6.81-15,10.21-24.59,10.21h-58c-8.54,0-15.47-6.93-15.47-15.47h0c0-8.54,6.93-15.47,15.47-15.47h58c1.08,0,2-.37,2.75-1.12,.75-.75,1.12-1.66,1.12-2.75s-.37-2-1.12-2.75c-.75-.75-1.66-1.12-2.75-1.12h-58c-8.54,0-15.47-6.93-15.47-15.47h0c0-8.54,6.93-15.47,15.47-15.47h58c1.08,0,2-.37,2.75-1.12,.75-.75,1.12-1.66,1.12-2.75s-.37-2-1.12-2.75c-.75-.75-1.66-1.12-2.75-1.12Z"/>
            <path class="cls-5" d="M415.93,614.06h46.4c8.54,0,15.47,6.93,15.47,15.47h0c0,8.54-6.93,15.47-15.47,15.47h-77.34c-8.54,0-15.47-6.93-15.47-15.47v-77.34c0-8.54,6.93-15.47,15.47-15.47h0c8.54,0,15.47,6.93,15.47,15.47v46.4c0,8.54,6.93,15.47,15.47,15.47Z"/>
            <path class="cls-5" d="M586.07,567.66h-77.34c-8.54,0-15.47-6.93-15.47-15.47h0c0-8.54,6.93-15.47,15.47-15.47h77.34c8.54,0,15.47,6.93,15.47,15.47h0c0,8.54-6.93,15.47-15.47,15.47Zm0,38.67h-77.34c-8.54,0-15.47-6.93-15.47-15.47h0c0-8.54,6.93-15.47,15.47-15.47h77.34c8.54,0,15.47,6.93,15.47,15.47h0c0,8.54-6.93,15.47-15.47,15.47Zm0,38.67h-77.34c-8.54,0-15.47-6.93-15.47-15.47h0c0-8.54,6.93-15.47,15.47-15.47h77.34c8.54,0,15.47,6.93,15.47,15.47h0c0,8.54-6.93,15.47-15.47,15.47Z"/>
            <path class="cls-1" d="M687.23,606.33v23.25c0,8.52-6.9,15.42-15.42,15.42h-.09c-8.52,0-15.42-6.9-15.42-15.42v-77.43c0-8.52,6.9-15.42,15.42-15.42h.09c8.52,0,15.42,6.9,15.42,15.42v23.25l34.15-34.15c2.89-2.89,6.81-4.52,10.9-4.52h0c13.74,0,20.62,16.61,10.9,26.33l-27.81,27.81,27.81,27.81c9.71,9.72,2.83,26.33-10.9,26.33h0c-4.09,0-8.01-1.62-10.9-4.52l-34.15-34.15Z"/>
            <path class="cls-1" d="M814.61,645c-14.95,0-27.71-5.28-38.28-15.85-10.57-10.57-15.85-23.33-15.85-38.28s5.28-27.71,15.85-38.28,23.33-15.85,38.28-15.85,27.71,5.29,38.28,15.85c10.57,10.57,15.85,23.33,15.85,38.28s-5.29,27.71-15.85,38.28c-10.57,10.57-23.33,15.85-38.28,15.85Z"/>
            <path class="cls-1" d="M974.94,552.58c-10.57-10.57-23.33-15.85-38.28-15.85h-38.67c-8.54,0-15.47,6.93-15.47,15.47h0c0,8.54,6.93,15.47,15.47,15.47h38.67c6.39,0,11.86,2.27,16.4,6.81,4.54,4.54,6.81,10,6.81,16.4s-2.27,11.86-6.81,16.4c-4.54,4.54-10,6.81-16.4,6.81h-38.67c-8.54,0-15.47,6.93-15.47,15.47h0c0,8.54,6.93,15.47,15.47,15.47h38.21c14.35,0,28.24-5.48,38.46-15.57,10.76-10.62,16.14-23.48,16.14-38.57s-5.29-27.71-15.85-38.28Z"/>
            <path class="cls-5" d="M15.85,552.58c-10.57,10.57-15.85,23.33-15.85,38.28v38.67c0,8.54,6.93,15.47,15.47,15.47h0c8.54,0,15.47-6.93,15.47-15.47v-38.67c0-6.39,2.27-11.86,6.81-16.4,4.54-4.54,10-6.81,16.4-6.81s11.86,2.27,16.4,6.81c4.54,4.54,6.81,10,6.81,16.4v38.67c0,8.54,6.93,15.47,15.47,15.47h0c8.54,0,15.47-6.93,15.47-15.47v-38.21c0-14.35-5.48-28.24-15.57-38.46-10.62-10.76-23.48-16.14-38.57-16.14s-27.71,5.29-38.28,15.85Z"/>
            <path class="cls-1" d="M1097.36,567.66h-77.34c-8.54,0-15.47-6.93-15.47-15.47h0c0-8.54,6.93-15.47,15.47-15.47h77.34c8.54,0,15.47,6.93,15.47,15.47h0c0,8.54-6.93,15.47-15.47,15.47Zm0,38.67h-77.34c-8.54,0-15.47-6.93-15.47-15.47h0c0-8.54,6.93-15.47,15.47-15.47h77.34c8.54,0,15.47,6.93,15.47,15.47h0c0,8.54-6.93,15.47-15.47,15.47Zm0,38.67h-77.34c-8.54,0-15.47-6.93-15.47-15.47h0c0-8.54,6.93-15.47,15.47-15.47h77.34c8.54,0,15.47,6.93,15.47,15.47h0c0,8.54-6.93,15.47-15.47,15.47Z"/>
          </g>
        </g>
      </g>
    </g>
  </g>
</svg>